# xmcd
#
# Track frame offsets:
#	150
#	10027
#	17297
#	29480
#	40305
#	53815
#	69785
#	86300
#	97287
#	111535
#	127550
#	139945
#	152860
#	164600
#	178372
#	188862
#	203842
#	217492
#	232415
#	246007
#	257170
#	268845
#	279487
#	290427
#
# Disc length: 4084 seconds
# Revision: 0
# Processed by: cddbd v1.5.2PL0 Copyright (c) Steve Scherf et al.
# Submitted via: dBpowerAMP V12.0
#
DISCID=6c0ff218
DTITLE=Various Artist - Greatest Hits of the Millennium: 50's
DYEAR=1999
DGENRE=Pop
TTITLE0=Bill Haley and His Comets - (We're Gonna) Rock Around the Clock
TTITLE1=Leroy Anderson - The Typewriter
TTITLE2=Edmundo Ross and His Orchestra - London Is the Place for Me
TTITLE3=The Chordettes - Mr. Sandman
TTITLE4=The Four Aces - Three Coins in the Fountain
TTITLE5=Het Orkest Zonder Naam - Lentekind
TTITLE6=Willem Parel (Wim Sonneveld) - Daar Is de Orgelman (Het Lied Van Willem Parel)
TTITLE7=The Four Aces - Amor
TTITLE8=Maria Zamora y Sus Muchachos - Mama el Baion
TTITLE9=Rudi Schuricke - Warum Weinst du Kleine Tamara
TTITLE10=The Crew Cuts - Sh-Boom (Life Could Be a Dream)
TTITLE11=McGuire Sisters - Goodnight Sweetheart, Goodnight
TTITLE12=The Platters - The Great Pretender
TTITLE13=Tony Bennett - Stranger in Paradise
TTITLE14=Chuck Berry - Maybellene
TTITLE15=Willy Alberti - Als Een Wilde Orchidee
TTITLE16=Perez Prado - Cherry Pink and Apple Blossom White
TTITLE17=Louis Armstrong and the All Stars - Mack the Knife
TTITLE18=Mitch Miller - The Yellow Rose of Texas
TTITLE19=Bo Diddley - Bo Diddley
TTITLE20=The Platters - Only You
TTITLE21=Little Richard - Rip It Up
TTITLE22=Guy Mitchel, Ray Conniff and His Orchestra - Singing the Blues
TTITLE23=Freddy Quinn - Heimweh
EXTD=
EXTT0=
EXTT1=
EXTT2=
EXTT3=
EXTT4=
EXTT5=
EXTT6=
EXTT7=
EXTT8=
EXTT9=
EXTT10=
EXTT11=
EXTT12=
EXTT13=
EXTT14=
EXTT15=
EXTT16=
EXTT17=
EXTT18=
EXTT19=
EXTT20=
EXTT21=
EXTT22=
EXTT23=
PLAYORDER=
